<svg width="29" height="24" viewBox="0 0 29 24" fill="none" xmlns="http://www.w3.org/2000/svg">
<path d="M28.7734 9.5001C28.7734 14.2126 24.9671 18.0642 20.2093 18.0642C15.4968 18.0642 11.6453 14.2126 11.6453 9.5001C11.6453 4.7876 15.4515 0.936035 20.164 0.936035C24.9671 0.936035 28.7734 4.7876 28.7734 9.5001Z" fill="#FFB600"/>
<path d="M20.2093 0.936035C24.9218 0.936035 28.7734 4.7876 28.7734 9.5001C28.7734 14.2126 24.9671 18.0642 20.2093 18.0642C15.4968 18.0642 11.6453 14.2126 11.6453 9.5001" fill="#F7981D"/>
<path d="M20.2095 0.936035C24.922 0.936035 28.7735 4.7876 28.7735 9.5001C28.7735 14.2126 24.9673 18.0642 20.2095 18.0642" fill="#FF8500"/>
<path d="M8.7 0.936035C4.03281 0.981348 0.226562 4.7876 0.226562 9.5001C0.226562 14.2126 4.03281 18.0642 8.79062 18.0642C11.0109 18.0642 13.0047 17.2032 14.5453 15.8438C14.8625 15.572 15.1344 15.2548 15.4062 14.9376H13.6391C13.4125 14.6657 13.1859 14.3485 13.0047 14.0767H16.0406C16.2219 13.8048 16.4031 13.4876 16.5391 13.1704H12.5062C12.3703 12.8985 12.2344 12.5813 12.1437 12.2642H16.8562C17.1281 11.4032 17.3094 10.497 17.3094 9.54541C17.3094 8.91103 17.2187 8.32197 17.1281 7.73291H11.8719C11.9172 7.41572 12.0078 7.14385 12.0984 6.82666H16.8109C16.7203 6.50947 16.5844 6.19229 16.4484 5.92041H12.4609C12.5969 5.60322 12.7781 5.33135 12.9594 5.01416H15.9953C15.8141 4.69697 15.5875 4.37979 15.3156 4.10791H13.6391C13.9109 3.79072 14.1828 3.51885 14.5 3.24697C13.0047 1.84229 10.9656 1.02666 8.74531 1.02666C8.74531 0.936035 8.74531 0.936035 8.7 0.936035Z" fill="#FF5050"/>
<path d="M0.226562 9.50029C0.226562 14.2128 4.03281 18.0644 8.79062 18.0644C11.0109 18.0644 13.0047 17.2034 14.5453 15.844C14.8625 15.5722 15.1344 15.255 15.4062 14.9378H13.6391C13.4125 14.6659 13.1859 14.3487 13.0047 14.0769H16.0406C16.2219 13.805 16.4031 13.4878 16.5391 13.1706H12.5062C12.3703 12.8987 12.2344 12.5815 12.1437 12.2644H16.8562C17.1281 11.4034 17.3094 10.4972 17.3094 9.5456C17.3094 8.91123 17.2187 8.32217 17.1281 7.73311H11.8719C11.9172 7.41592 12.0078 7.14404 12.0984 6.82686H16.8109C16.7203 6.50967 16.5844 6.19248 16.4484 5.92061H12.4609C12.5969 5.60342 12.7781 5.33154 12.9594 5.01436H15.9953C15.8141 4.69717 15.5875 4.37998 15.3156 4.10811H13.6391C13.9109 3.79092 14.1828 3.51904 14.5 3.24717C13.0047 1.84248 10.9656 1.02686 8.74531 1.02686H8.7" fill="#E52836"/>
<g filter="url(#filter0_d_168_781)">
<path d="M8.79058 18.0644C11.0109 18.0644 13.0046 17.2034 14.5453 15.844C14.8625 15.5722 15.1343 15.255 15.4062 14.9378H13.639C13.4125 14.6659 13.1859 14.3487 13.0046 14.0769H16.0406C16.2218 13.805 16.4031 13.4878 16.539 13.1706H12.5062C12.3703 12.8987 12.2343 12.5815 12.1437 12.2644H16.8562C17.1281 11.4034 17.3093 10.4972 17.3093 9.5456C17.3093 8.91123 17.2187 8.32217 17.1281 7.73311H11.8718C11.9171 7.41592 12.0078 7.14404 12.0984 6.82686H16.8109C16.7203 6.50967 16.5843 6.19248 16.4484 5.92061H12.4609C12.5968 5.60342 12.7781 5.33154 12.9593 5.01436H15.9953C15.814 4.69717 15.5875 4.37998 15.3156 4.10811H13.639C13.9109 3.79092 14.1828 3.51904 14.5 3.24717C13.0046 1.84248 10.9656 1.02686 8.74526 1.02686H8.69995" fill="#CB2026"/>
</g>
<path d="M11.8265 11.675L11.9625 10.9047C11.9171 10.9047 11.8265 10.95 11.7359 10.95C11.4187 10.95 11.3734 10.7687 11.4187 10.6781L11.6906 9.09219H12.189L12.325 8.23125H11.8718L11.9625 7.6875H11.0562C11.0562 7.6875 10.5125 10.6781 10.5125 11.0406C10.5125 11.5844 10.8296 11.8109 11.2375 11.8109C11.5093 11.8109 11.7359 11.7203 11.8265 11.675Z" fill="white"/>
<path d="M12.1438 10.225C12.1438 11.4937 13.0047 11.8109 13.7297 11.8109C14.4094 11.8109 14.6813 11.675 14.6813 11.675L14.8625 10.814C14.8625 10.814 14.3641 11.0406 13.911 11.0406C12.9141 11.0406 13.0954 10.3156 13.0954 10.3156H14.9532C14.9532 10.3156 15.0891 9.72654 15.0891 9.49997C15.0891 8.91091 14.7719 8.18591 13.775 8.18591C12.8235 8.09529 12.1438 9.09216 12.1438 10.225ZM13.7297 8.91091C14.2282 8.91091 14.1375 9.49997 14.1375 9.54528H13.1407C13.1407 9.49997 13.2313 8.91091 13.7297 8.91091Z" fill="white"/>
<path d="M19.4844 11.6751L19.6656 10.6782C19.6656 10.6782 19.2125 10.9048 18.8953 10.9048C18.2609 10.9048 17.9891 10.4063 17.9891 9.8626C17.9891 8.7751 18.5328 8.18604 19.1672 8.18604C19.6203 8.18604 19.9828 8.45791 19.9828 8.45791L20.1188 7.50635C20.1188 7.50635 19.575 7.27979 19.0766 7.27979C18.0344 7.27979 16.9922 8.18604 16.9922 9.90791C16.9922 11.0407 17.5359 11.811 18.6234 11.811C18.9859 11.811 19.4844 11.6751 19.4844 11.6751Z" fill="white"/>
<path d="M6.84224 8.09521C6.20786 8.09521 5.75474 8.27646 5.75474 8.27646L5.6188 9.04678C5.6188 9.04678 6.02661 8.86553 6.61567 8.86553C6.93286 8.86553 7.20474 8.91084 7.20474 9.18271C7.20474 9.36396 7.15942 9.40928 7.15942 9.40928C7.15942 9.40928 6.88755 9.40928 6.75161 9.40928C5.9813 9.40928 5.12036 9.72646 5.12036 10.7687C5.12036 11.5843 5.66411 11.7655 5.9813 11.7655C6.61567 11.7655 6.88755 11.3577 6.93286 11.3577L6.88755 11.7202H7.70317L8.06567 9.22803C8.06567 8.14053 7.15942 8.09521 6.84224 8.09521ZM7.02349 10.1343C7.02349 10.2702 6.93286 10.9952 6.38911 10.9952C6.11724 10.9952 6.02661 10.7687 6.02661 10.6327C6.02661 10.4062 6.16255 10.089 6.84224 10.089C6.97817 10.1343 7.02349 10.1343 7.02349 10.1343Z" fill="white"/>
<path d="M8.92671 11.7659C9.15327 11.7659 10.2861 11.8112 10.2861 10.5878C10.2861 9.45498 9.19858 9.68154 9.19858 9.22842C9.19858 9.00186 9.37983 8.91123 9.69702 8.91123C9.83296 8.91123 10.3314 8.95654 10.3314 8.95654L10.4673 8.14092C10.4673 8.14092 10.1501 8.05029 9.6064 8.05029C8.92671 8.05029 8.24702 8.32217 8.24702 9.22842C8.24702 10.2706 9.37983 10.18 9.37983 10.5878C9.37983 10.8597 9.06265 10.905 8.83608 10.905C8.42827 10.905 8.02046 10.769 8.02046 10.769L7.88452 11.5847C7.92983 11.6753 8.1564 11.7659 8.92671 11.7659Z" fill="white"/>
<path d="M27.0064 7.37061L26.8251 8.59404C26.8251 8.59404 26.4626 8.14092 25.9642 8.14092C25.1486 8.14092 24.4236 9.13779 24.4236 10.3159C24.4236 11.0409 24.7861 11.8112 25.5564 11.8112C26.1001 11.8112 26.4173 11.4487 26.4173 11.4487L26.372 11.7659H27.2783L27.958 7.41592L27.0064 7.37061ZM26.5986 9.77217C26.5986 10.2706 26.372 10.905 25.8736 10.905C25.5564 10.905 25.3751 10.6331 25.3751 10.18C25.3751 9.45498 25.6923 9.00186 26.1001 9.00186C26.4173 9.00186 26.5986 9.22842 26.5986 9.77217Z" fill="white"/>
<path d="M1.90317 11.7206L2.44692 8.45811L2.53755 11.7206H3.17192L4.35005 8.45811L3.85161 11.7206H4.80317L5.52817 7.37061H4.03286L3.12661 10.044L3.0813 7.37061H1.76724L1.04224 11.7206H1.90317Z" fill="white"/>
<path d="M15.95 11.7204C16.2219 10.2251 16.2672 9.00166 16.9016 9.22822C16.9922 8.63916 17.1281 8.4126 17.2188 8.18604C17.2188 8.18604 17.1734 8.18604 17.0375 8.18604C16.6297 8.18604 16.3125 8.72978 16.3125 8.72978L16.4031 8.23135H15.5422L14.9531 11.7657H15.95V11.7204Z" fill="white"/>
<path d="M21.5688 8.09521C20.9344 8.09521 20.4813 8.27646 20.4813 8.27646L20.3454 9.04678C20.3454 9.04678 20.7532 8.86553 21.3422 8.86553C21.6594 8.86553 21.9313 8.91084 21.9313 9.18271C21.9313 9.36396 21.886 9.40928 21.886 9.40928C21.886 9.40928 21.6141 9.40928 21.4782 9.40928C20.7079 9.40928 19.8469 9.72646 19.8469 10.7687C19.8469 11.5843 20.3907 11.7655 20.7079 11.7655C21.3422 11.7655 21.6141 11.3577 21.6594 11.3577L21.6141 11.7202H22.4297L22.7922 9.22803C22.8375 8.14053 21.886 8.09521 21.5688 8.09521ZM21.7954 10.1343C21.7954 10.2702 21.7047 10.9952 21.161 10.9952C20.8891 10.9952 20.7985 10.7687 20.7985 10.6327C20.7985 10.4062 20.9344 10.089 21.6141 10.089C21.75 10.1343 21.75 10.1343 21.7954 10.1343Z" fill="white"/>
<path d="M23.5625 11.7204C23.8344 10.2251 23.8797 9.00166 24.5141 9.22822C24.6047 8.63916 24.7407 8.4126 24.8313 8.18604C24.8313 8.18604 24.786 8.18604 24.65 8.18604C24.2422 8.18604 23.925 8.72978 23.925 8.72978L24.0157 8.23135H23.1547L22.5657 11.7657H23.5625V11.7204Z" fill="white"/>
<path d="M10.4219 11.0406C10.4219 11.5844 10.7391 11.8109 11.1469 11.8109C11.4641 11.8109 11.7359 11.7203 11.8266 11.675L11.9625 10.9047C11.9172 10.9047 11.8266 10.95 11.7359 10.95C11.4187 10.95 11.3734 10.7687 11.4188 10.6781L11.6906 9.09219H12.1891L12.325 8.23125H11.8719L11.9625 7.6875" fill="#DCE5E5"/>
<path d="M12.5969 10.225C12.5969 11.4937 13.0047 11.8109 13.7297 11.8109C14.4094 11.8109 14.6813 11.675 14.6813 11.675L14.8625 10.814C14.8625 10.814 14.3641 11.0406 13.911 11.0406C12.9141 11.0406 13.0954 10.3156 13.0954 10.3156H14.9532C14.9532 10.3156 15.0891 9.72654 15.0891 9.49997C15.0891 8.91091 14.7719 8.18591 13.775 8.18591C12.8235 8.09529 12.5969 9.09216 12.5969 10.225ZM13.7297 8.91091C14.2282 8.91091 14.3188 9.49997 14.3188 9.54528H13.1407C13.1407 9.49997 13.2313 8.91091 13.7297 8.91091Z" fill="#DCE5E5"/>
<path d="M19.4844 11.6751L19.6656 10.6782C19.6656 10.6782 19.2125 10.9048 18.8953 10.9048C18.2609 10.9048 17.9891 10.4063 17.9891 9.8626C17.9891 8.7751 18.5328 8.18604 19.1672 8.18604C19.6203 8.18604 19.9828 8.45791 19.9828 8.45791L20.1188 7.50635C20.1188 7.50635 19.575 7.27979 19.0766 7.27979C18.0344 7.27979 17.4453 8.18604 17.4453 9.90791C17.4453 11.0407 17.5359 11.811 18.6234 11.811C18.9859 11.811 19.4844 11.6751 19.4844 11.6751Z" fill="#DCE5E5"/>
<path d="M5.6188 9.09229C5.6188 9.09229 6.02661 8.91104 6.61567 8.91104C6.93286 8.91104 7.20474 8.95635 7.20474 9.22822C7.20474 9.40947 7.15942 9.45478 7.15942 9.45478C7.15942 9.45478 6.88755 9.45478 6.75161 9.45478C5.9813 9.45478 5.12036 9.77197 5.12036 10.8142C5.12036 11.6298 5.66411 11.811 5.9813 11.811C6.61567 11.811 6.88755 11.4032 6.93286 11.4032L6.88755 11.7657H7.70317L8.06567 9.27354C8.06567 8.23135 7.15942 8.18604 6.79692 8.18604M7.47661 10.1345C7.47661 10.2704 6.93286 10.9954 6.38911 10.9954C6.11724 10.9954 6.02661 10.7688 6.02661 10.6329C6.02661 10.4063 6.16255 10.0892 6.84224 10.0892C6.97817 10.1345 7.47661 10.1345 7.47661 10.1345Z" fill="#DCE5E5"/>
<path d="M7.92969 11.6753C7.92969 11.6753 8.20156 11.7659 8.97187 11.7659C9.19844 11.7659 10.3312 11.8112 10.3312 10.5878C10.3312 9.45498 9.24375 9.68154 9.24375 9.22842C9.24375 9.00186 9.425 8.91123 9.74219 8.91123C9.87812 8.91123 10.3766 8.95654 10.3766 8.95654L10.5125 8.14092C10.5125 8.14092 10.1953 8.05029 9.65156 8.05029C8.97187 8.05029 8.74531 8.32217 8.74531 9.22842C8.74531 10.2706 9.425 10.18 9.425 10.5878C9.425 10.8597 9.10781 10.905 8.88125 10.905" fill="#DCE5E5"/>
<path d="M26.825 8.59365C26.825 8.59365 26.4625 8.14053 25.9641 8.14053C25.1485 8.14053 24.8766 9.1374 24.8766 10.3155C24.8766 11.0405 24.786 11.8108 25.5563 11.8108C26.1 11.8108 26.4172 11.4483 26.4172 11.4483L26.3719 11.7655H27.2781L27.9578 7.41553M26.7797 9.77178C26.7797 10.2702 26.3719 10.9046 25.8735 10.9046C25.5563 10.9046 25.375 10.6327 25.375 10.1796C25.375 9.45459 25.6922 9.00146 26.1 9.00146C26.4172 9.00146 26.7797 9.22803 26.7797 9.77178Z" fill="#DCE5E5"/>
<path d="M1.90317 11.7206L2.44692 8.45811L2.53755 11.7206H3.17192L4.35005 8.45811L3.85161 11.7206H4.80317L5.52817 7.37061H4.39536L3.12661 10.044L3.0813 7.37061H2.58286L1.04224 11.7206H1.90317Z" fill="#DCE5E5"/>
<path d="M14.9985 11.7204H15.9501C16.222 10.2251 16.2673 9.00166 16.9017 9.22822C16.9923 8.63916 17.1282 8.4126 17.2188 8.18604C17.2188 8.18604 17.1735 8.18604 17.0376 8.18604C16.6298 8.18604 16.3126 8.72978 16.3126 8.72978L16.4032 8.23135" fill="#DCE5E5"/>
<path d="M20.3454 9.09229C20.3454 9.09229 20.7532 8.91104 21.3422 8.91104C21.6594 8.91104 21.9313 8.95635 21.9313 9.22822C21.9313 9.40947 21.886 9.45478 21.886 9.45478C21.886 9.45478 21.6141 9.45478 21.4782 9.45478C20.7079 9.45478 19.8469 9.77197 19.8469 10.8142C19.8469 11.6298 20.3907 11.811 20.7079 11.811C21.3422 11.811 21.6141 11.4032 21.6594 11.4032L21.6141 11.7657H22.4297L22.7922 9.27354C22.7922 8.23135 21.886 8.18604 21.5235 8.18604M22.2032 10.1345C22.2032 10.2704 21.6594 10.9954 21.1157 10.9954C20.8438 10.9954 20.7532 10.7688 20.7532 10.6329C20.7532 10.4063 20.8891 10.0892 21.5688 10.0892C21.75 10.1345 22.2032 10.1345 22.2032 10.1345Z" fill="#DCE5E5"/>
<path d="M22.6111 11.7204H23.5626C23.8345 10.2251 23.8798 9.00166 24.5142 9.22822C24.6048 8.63916 24.7408 8.4126 24.8314 8.18604C24.8314 8.18604 24.7861 8.18604 24.6501 8.18604C24.2423 8.18604 23.9251 8.72978 23.9251 8.72978L24.0158 8.23135" fill="#DCE5E5"/>
<defs>
<filter id="filter0_d_168_781" x="4.69995" y="1.02686" width="16.6094" height="25.0376" filterUnits="userSpaceOnUse" color-interpolation-filters="sRGB">
<feFlood flood-opacity="0" result="BackgroundImageFix"/>
<feColorMatrix in="SourceAlpha" type="matrix" values="0 0 0 0 0 0 0 0 0 0 0 0 0 0 0 0 0 0 127 0" result="hardAlpha"/>
<feOffset dy="4"/>
<feGaussianBlur stdDeviation="2"/>
<feComposite in2="hardAlpha" operator="out"/>
<feColorMatrix type="matrix" values="0 0 0 0 0 0 0 0 0 0 0 0 0 0 0 0 0 0 0.25 0"/>
<feBlend mode="normal" in2="BackgroundImageFix" result="effect1_dropShadow_168_781"/>
<feBlend mode="normal" in="SourceGraphic" in2="effect1_dropShadow_168_781" result="shape"/>
</filter>
</defs>
</svg>
