<svg width="33" height="9" viewBox="0 0 33 9" fill="none" xmlns="http://www.w3.org/2000/svg">
<path fill-rule="evenodd" clip-rule="evenodd" d="M3.71959 0.193396C4.00262 0.191672 4.84375 0.114512 5.20004 1.33925C5.44004 2.16425 5.82234 3.51564 6.34696 5.39342H6.56061C7.12321 3.41374 7.50969 2.06235 7.72004 1.33925C8.08004 0.101754 8.98004 0.193421 9.34004 0.193421L12.1175 0.193424V8.9934H9.28664V3.80743H9.0968L7.51872 8.9934H5.38884L3.81076 3.80359H3.62093V8.9934H0.790039V0.193424L3.71959 0.193396ZM16.1826 0.193424V5.38326H16.4085L18.3281 1.11569C18.7007 0.266437 19.4949 0.193424 19.4949 0.193424H22.2343V8.99342H19.3443V3.80359H19.1185L17.2365 8.07115C16.8639 8.91656 16.0321 8.99342 16.0321 8.99342H13.2926V0.193424H16.1826ZM32.2235 4.37524C31.8204 5.53876 30.5544 6.37204 29.1528 6.37204H26.122V8.99342H23.3738V4.37524H32.2235Z" fill="#0F754E"/>
<path fill-rule="evenodd" clip-rule="evenodd" d="M29.2854 0.193359H23.2297C23.3739 2.15254 25.0304 3.82972 26.7452 3.82972H32.4145C32.7417 2.20141 31.6154 0.193359 29.2854 0.193359Z" fill="url(#paint0_linear_168_766)"/>
<defs>
<linearGradient id="paint0_linear_168_766" x1="32.4701" y1="2.48079" x2="23.2297" y2="2.48079" gradientUnits="userSpaceOnUse">
<stop stop-color="#1F5CD7"/>
<stop offset="1" stop-color="#02AEFF"/>
</linearGradient>
</defs>
</svg>
