<svg width="33" height="12" viewBox="0 0 33 12" fill="none" xmlns="http://www.w3.org/2000/svg">
<path fill-rule="evenodd" clip-rule="evenodd" d="M12.4402 1.14942L8.35489 10.8715L5.60823 10.8748L3.28222 2.73164L3.09375 2.11809L3.1093 2.12679L3.13484 2.14128L3.10977 2.12791L3.10947 2.12692C3.12167 2.13364 3.13368 2.1405 3.14583 2.14727C3.5643 2.37413 5.42211 3.45816 6.57081 5.2143C6.74569 6.10744 6.91313 6.91873 7.14953 7.79383L9.69096 1.14941H12.4402L12.4402 1.14942Z" fill="#006CB5"/>
<path fill-rule="evenodd" clip-rule="evenodd" d="M23.4917 7.69718C23.4726 9.72096 21.7033 11.0277 18.9758 11.0277C17.8132 11.0148 16.6921 10.7809 16.0833 10.5077L16.4478 8.32719L16.7831 8.48419C17.6371 8.84782 18.1878 8.9937 19.2269 8.9937C19.9735 8.9937 20.7718 8.6942 20.7774 8.04025C20.7807 7.61349 20.4422 7.31058 19.4321 6.83348C18.4488 6.36655 17.1451 5.58656 17.1617 4.18676C17.1742 2.2929 18.9826 0.972656 21.5465 0.972656C22.5507 0.972656 23.3548 1.18266 23.8702 1.38226L23.5184 3.49288L23.2832 3.37943C22.8077 3.1832 22.192 2.99283 21.3413 3.00636C20.328 3.00636 19.8558 3.44015 19.8558 3.84636C19.8525 4.29948 20.4064 4.60336 21.3122 5.0531C22.811 5.74697 23.5049 6.59034 23.4917 7.69718H23.4917Z" fill="#006CB5"/>
<path fill-rule="evenodd" clip-rule="evenodd" d="M30.5265 1.14942H28.5229C27.9009 1.14942 27.4346 1.32266 27.1644 1.9594L23.3101 10.8843H26.0333C26.0333 10.8843 26.4794 9.6843 26.5813 9.42057C26.8774 9.42057 29.5264 9.42738 29.9042 9.42738C29.9794 9.76801 30.217 10.8843 30.217 10.8843H32.6251L30.5265 1.14941V1.14942ZM27.3268 7.43023C27.7931 6.21835 28.2607 4.99783 28.7048 3.77654C28.9602 4.99517 29.2213 6.21244 29.4805 7.43023H27.3268H27.3268Z" fill="#006CB5"/>
<path fill-rule="evenodd" clip-rule="evenodd" d="M13.4893 1.13916H16.0833L14.4602 10.8809H11.8669L13.4893 1.13916Z" fill="#006CB5"/>
<path fill-rule="evenodd" clip-rule="evenodd" d="M0.375003 1.05323L4.76407 1.05637C5.30525 1.07596 5.74148 1.25255 5.89494 1.84577L6.57072 5.21416C5.42203 3.45801 3.56422 2.37398 3.14574 2.14713C3.13359 2.14035 3.12159 2.1335 3.10939 2.12678L3.10968 2.12777L3.13475 2.14114L3.10921 2.12665C3.03926 2.08739 2.96853 2.04875 2.89714 2.01086C2.13051 1.60379 1.28265 1.27737 0.375 1.05322L0.375003 1.05323Z" fill="#FAA841"/>
</svg>
